<svg width="260" height="50" viewBox="0 0 260 50" fill="none" xmlns="http://www.w3.org/2000/svg">
<g clip-path="url(#clip0_3605_17658)">
<path d="M26.6294 35.518V25.8639C26.6294 23.2041 25.686 20.9384 23.7992 19.0666C21.9123 17.195 19.6283 16.2591 16.9469 16.2591C14.2656 16.2591 11.9816 17.195 10.0947 19.0666C8.17474 20.9384 7.21477 23.2041 7.21477 25.8639C7.21477 28.5237 8.17474 30.7894 10.0947 32.6612C11.9816 34.5657 14.2656 35.518 16.9469 35.518H26.6294ZM5.47689 14.5352C8.65474 11.3828 12.4781 9.80664 16.9469 9.80664C21.4158 9.80664 25.2225 11.3828 28.3673 14.5352C31.5452 17.6547 33.1341 21.431 33.1341 25.8639V41.9211H16.9469C12.4781 41.9211 8.65474 40.3613 5.47689 37.2419C2.33213 34.0895 0.759766 30.2969 0.759766 25.8639C0.759766 21.431 2.33213 17.6547 5.47689 14.5352Z" fill="#031555"/>
<path d="M69.2279 16.2591H46.5857C45.6919 16.2591 44.914 16.5711 44.2519 17.195C43.623 17.8188 43.3086 18.5741 43.3086 19.4607C43.3086 20.3473 43.623 21.1026 44.2519 21.7264C44.914 22.3504 45.6919 22.6623 46.5857 22.6623H59.4956C62.177 22.6623 64.4776 23.5982 66.3975 25.4699C68.2844 27.3415 69.2279 29.6073 69.2279 32.2671C69.2279 34.9269 68.2844 37.209 66.3975 39.1136C64.4776 40.9853 62.177 41.9211 59.4956 41.9211H36.8535V35.518H59.4956C60.3894 35.518 61.1508 35.206 61.7798 34.5821C62.4087 33.9254 62.7232 33.1537 62.7232 32.2671C62.7232 31.3805 62.4087 30.6253 61.7798 30.0013C61.1508 29.3774 60.3894 29.0655 59.4956 29.0655H46.5857C43.9043 29.0655 41.6038 28.1296 39.6838 26.258C37.797 24.3863 36.8535 22.1205 36.8535 19.4607C36.8535 16.801 37.797 14.5188 39.6838 12.6142C41.6038 10.7425 43.9043 9.80664 46.5857 9.80664H69.2279V16.2591Z" fill="#031555"/>
<path d="M88.736 35.5186H95.191V41.9217H88.736C84.2671 41.9217 80.4437 40.3619 77.2659 37.2425C74.1212 34.0901 72.5488 30.2975 72.5488 25.8645V0H79.0038V9.80721H91.9635V16.2597H79.0038V25.8645C79.0038 28.5242 79.9639 30.79 81.8838 32.6617C83.7706 34.5663 86.0547 35.5186 88.736 35.5186Z" fill="#031555"/>
<path d="M105.464 41.9211H99.0098V25.8639C99.0098 21.431 100.581 17.6547 103.726 14.5352C106.904 11.3828 110.728 9.80664 115.196 9.80664H121.652V16.2591H115.196C112.515 16.2591 110.231 17.195 108.345 19.0666C106.424 20.9384 105.464 23.2041 105.464 25.8639V41.9211Z" fill="#031555"/>
<path d="M213.414 32.5634C215.301 30.6918 216.245 28.426 216.245 25.7662C216.245 23.1064 215.301 20.8406 213.414 18.969C211.528 17.0973 209.244 16.1614 206.563 16.1614H196.831V25.7662C196.831 28.426 197.79 30.6918 199.71 32.5634C201.597 34.4679 203.881 35.4202 206.563 35.4202C209.244 35.4202 211.528 34.4679 213.414 32.5634ZM217.982 14.4374C221.16 17.557 222.749 21.3332 222.749 25.7662C222.749 30.1992 221.16 33.9919 217.982 37.1442C214.838 40.2637 211.031 41.8234 206.563 41.8234C202.955 41.8234 199.71 40.7562 196.831 38.6219V50.0002H190.375V9.70898H206.563C211.031 9.70898 214.838 11.2851 217.982 14.4374Z" fill="#031555"/>
<path d="M259.24 16.2591H236.597C235.704 16.2591 234.926 16.5711 234.264 17.195C233.635 17.8188 233.321 18.5741 233.321 19.4607C233.321 20.3473 233.635 21.1026 234.264 21.7264C234.926 22.3504 235.704 22.6623 236.597 22.6623H249.507C252.189 22.6623 254.49 23.5982 256.41 25.4699C258.296 27.3415 259.24 29.6073 259.24 32.2671C259.24 34.9269 258.296 37.209 256.41 39.1136C254.49 40.9853 252.189 41.9211 249.507 41.9211H226.865V35.518H249.507C250.402 35.518 251.163 35.206 251.791 34.5821C252.421 33.9254 252.735 33.1537 252.735 32.2671C252.735 31.3805 252.421 30.6253 251.791 30.0013C251.163 29.3774 250.402 29.0655 249.507 29.0655H236.597C233.916 29.0655 231.616 28.1296 229.695 26.258C227.809 24.3863 226.865 22.1205 226.865 19.4607C226.865 16.801 227.809 14.5188 229.695 12.6142C231.616 10.7425 233.916 9.80664 236.597 9.80664H259.24V16.2591Z" fill="#031555"/>
<path d="M153.482 41.7032H146.463C146.652 41.1812 146.684 40.6837 146.951 40.4222C149.111 38.3002 151.317 36.2221 153.482 34.1562V41.7032Z" fill="#3488FF"/>
<path d="M186.766 25.2018C186.766 33.6368 179.891 40.4753 171.411 40.4753C169.508 40.4753 167.687 40.1317 166.007 39.5031C163.348 38.4331 160.916 36.6525 159.184 34.443C158.572 33.6436 158.036 32.7824 157.591 31.8697C157.457 31.5879 157.337 31.3015 157.228 31.0108C157.122 30.7279 157.052 30.2417 157.206 30.0823C159.072 28.1624 160.982 26.2863 162.959 24.3228C163.112 25.4635 163.148 26.4604 163.389 27.4058C164.23 30.6953 167.191 33.2652 170.418 33.6009C173.993 33.9725 177.512 32.1413 179.017 29.1268C180.587 25.9787 180.015 21.9505 177.642 19.4591C174.564 16.2268 169.155 15.9663 165.691 19.1684C162.468 22.1503 159.533 25.4354 156.422 28.5408C156.395 28.5688 156.368 28.5958 156.341 28.6228C153.342 31.6148 150.476 34.7832 147.196 37.4406C142.217 41.4745 135.222 41.5902 129.835 38.1951C124.581 34.8831 121.802 28.4015 123.027 22.321C124.25 16.2605 129.572 11.1094 135.641 10.1091C142.365 9.00211 149.743 13.0709 152.324 19.3412C152.454 19.6567 152.472 20.2372 152.277 20.4325C150.454 22.2502 148.573 24.0107 146.681 25.8148C146.614 25.2445 146.566 24.581 146.458 23.9264C145.901 20.5078 143.062 17.7099 139.512 17.0633C136.291 16.4761 132.542 18.1478 130.928 20.8906C129.068 24.0477 129.361 28.0075 131.653 30.701C134.477 34.0197 139.648 34.5787 143.257 31.7821C144.984 30.4438 146.499 28.8226 148.037 27.2598C151.989 23.2449 155.78 19.0628 159.837 15.1625C160.167 14.8447 160.497 14.5292 160.831 14.2171C166.059 9.31085 173.525 8.66304 179.423 12.1704C183.828 14.8548 186.766 19.687 186.766 25.2018Z" fill="#3488FF"/>
</g>
<defs>
<clipPath id="clip0_3605_17658">
<rect width="260" height="50" fill="white"/>
</clipPath>
</defs>
</svg>
