<svg width="100" height="100" viewBox="0 0 100 100" fill="none" xmlns="http://www.w3.org/2000/svg">
<path d="M50 93.9453C74.2703 93.9453 93.9453 74.2703 93.9453 50C93.9453 25.7297 74.2703 6.05469 50 6.05469C25.7297 6.05469 6.05469 25.7297 6.05469 50C6.05469 74.2703 25.7297 93.9453 50 93.9453Z" fill="url(#paint0_linear_3514_15184)"/>
<path d="M59.3359 25.5859H40.6836C32.3633 25.5859 25.6055 32.3437 25.6055 40.6641V59.3164C25.6055 67.6367 32.3633 74.3945 40.6836 74.3945H59.3359C67.6562 74.3945 74.4141 67.6367 74.4141 59.3164V40.6641C74.4141 32.3437 67.6562 25.5859 59.3359 25.5859ZM68.9648 59.3359C68.9648 64.6484 64.6484 68.9844 59.3164 68.9844H40.6641C35.3516 68.9844 31.0156 64.668 31.0156 59.3359V40.6836C31.0156 35.3711 35.332 31.0352 40.6641 31.0352H59.3164C64.6289 31.0352 68.9648 35.3516 68.9648 40.6836V59.3359Z" fill="white"/>
<path d="M50 37.5195C43.125 37.5195 37.5195 43.125 37.5195 50C37.5195 56.875 43.125 62.4805 50 62.4805C56.875 62.4805 62.4805 56.875 62.4805 50C62.4805 43.125 56.875 37.5195 50 37.5195ZM50 57.5781C45.8203 57.5781 42.4219 54.1797 42.4219 50C42.4219 45.8203 45.8203 42.4219 50 42.4219C54.1797 42.4219 57.5781 45.8203 57.5781 50C57.5781 54.1797 54.1797 57.5781 50 57.5781Z" fill="white"/>
<path d="M63.4308 38.8889C64.5806 38.7025 65.3616 37.6193 65.1752 36.4695C64.9888 35.3196 63.9056 34.5386 62.7558 34.725C61.606 34.9114 60.8249 35.9946 61.0113 37.1445C61.1977 38.2943 62.281 39.0753 63.4308 38.8889Z" fill="white"/>
<defs>
<linearGradient id="paint0_linear_3514_15184" x1="16.5389" y1="83.4611" x2="78.99" y2="21.01" gradientUnits="userSpaceOnUse">
<stop stop-color="#FEE411"/>
<stop offset="0.0518459" stop-color="#FEDB16"/>
<stop offset="0.1381" stop-color="#FEC125"/>
<stop offset="0.2481" stop-color="#FE983D"/>
<stop offset="0.3762" stop-color="#FE5F5E"/>
<stop offset="0.5" stop-color="#FE2181"/>
<stop offset="1" stop-color="#9000DC"/>
</linearGradient>
</defs>
</svg>
