<svg width="100" height="100" viewBox="0 0 100 100" fill="none" xmlns="http://www.w3.org/2000/svg">
<g clip-path="url(#clip0_3514_15170)">
<path d="M50 100C77.6142 100 100 77.6142 100 50C100 22.3858 77.6142 0 50 0C22.3858 0 0 22.3858 0 50C0 77.6142 22.3858 100 50 100Z" fill="#0B69C7"/>
<path d="M38.8161 31.8224C38.8174 33.1736 38.4178 34.4948 37.668 35.6188C36.9181 36.7428 35.8516 37.6191 34.6035 38.1368C33.3554 38.6545 31.9818 38.7903 30.6565 38.527C29.3312 38.2637 28.1138 37.6132 27.1584 36.6577C26.2029 35.7023 25.5524 34.4849 25.2891 33.1596C25.0258 31.8343 25.1616 30.4607 25.6793 29.2126C26.197 27.9645 27.0733 26.898 28.1973 26.1481C29.3213 25.3983 30.6425 24.9987 31.9937 25C33.8026 25.0017 35.5369 25.7211 36.816 27.0002C38.095 28.2792 38.8144 30.0135 38.8161 31.8224Z" fill="white"/>
<path d="M35.5859 41.4922H28.4017C27.4679 41.4922 26.7109 42.2492 26.7109 43.183V73.308C26.7109 74.2418 27.4679 74.9988 28.4017 74.9988H35.5859C36.5197 74.9988 37.2767 74.2418 37.2767 73.308V43.183C37.2767 42.2492 36.5197 41.4922 35.5859 41.4922Z" fill="white"/>
<path d="M74.8359 58.8618V73.4474C74.8359 73.8592 74.6723 74.2541 74.3811 74.5452C74.0899 74.8364 73.695 75 73.2832 75H65.5727C65.1609 75 64.766 74.8364 64.4748 74.5452C64.1836 74.2541 64.0201 73.8592 64.0201 73.4474V59.3158C64.0201 57.204 64.6319 50.1053 58.5069 50.1053C53.7569 50.1053 52.7898 54.9868 52.5858 57.1776V73.4803C52.5773 73.8841 52.4118 74.2686 52.1243 74.5524C51.8369 74.8361 51.4502 74.9967 51.0464 75H43.5858C43.3817 75.0009 43.1794 74.9613 42.9907 74.8836C42.8019 74.8059 42.6304 74.6915 42.486 74.5472C42.3417 74.4028 42.2273 74.2313 42.1496 74.0426C42.0719 73.8538 42.0323 73.6515 42.0332 73.4474V43.0526C42.0324 42.8482 42.0719 42.6456 42.1495 42.4564C42.2271 42.2673 42.3414 42.0954 42.4856 41.9505C42.6299 41.8056 42.8014 41.6907 42.9902 41.6122C43.179 41.5338 43.3814 41.4934 43.5858 41.4934H51.0464C51.2533 41.4899 51.4589 41.5277 51.6511 41.6045C51.8434 41.6813 52.0184 41.7956 52.166 41.9407C52.3135 42.0858 52.4308 42.2589 52.5108 42.4498C52.5907 42.6407 52.6319 42.8456 52.6319 43.0526V45.6842C54.3951 43.0526 57.0135 41 62.5858 41C74.9082 40.9934 74.8359 52.5263 74.8359 58.8618Z" fill="white"/>
</g>
<defs>
<clipPath id="clip0_3514_15170">
<rect width="100" height="100" fill="white"/>
</clipPath>
</defs>
</svg>
