<svg width="102" height="38" viewBox="0 0 102 38" fill="none" xmlns="http://www.w3.org/2000/svg">
<path d="M34.9232 8.83403C37.384 8.83403 39.3789 6.85647 39.3789 4.41702C39.3789 1.97756 37.384 0 34.9232 0C32.4623 0 30.4676 1.97756 30.4676 4.41702C30.4676 6.85647 32.4623 8.83403 34.9232 8.83403Z" fill="#3488FF"/>
<path d="M7.63637 9.64576C7.30383 9.64576 7.03425 9.91298 7.03425 10.2426V22.9951C7.03425 23.3247 7.30383 23.5919 7.63637 23.5919H14.0685C15.0325 23.5919 15.9395 23.4139 16.7891 23.0576C17.6388 22.6849 18.3822 22.1828 19.0195 21.551C19.6567 20.9194 20.1551 20.1824 20.5144 19.3401C20.8904 18.4816 21.0783 17.5746 21.0783 16.619C21.0783 15.6632 20.8904 14.7643 20.5144 13.9219C20.1551 13.0635 19.6567 12.3183 19.0195 11.6867C18.3822 11.055 17.6388 10.5609 16.7891 10.2046C15.9395 9.83203 15.0325 9.64576 14.0685 9.64576H7.63637ZM7.03425 36.9171C7.03425 37.2467 6.76468 37.514 6.43212 37.514H0.602126C0.269582 37.514 0 37.2467 0 36.9171L0 3.2695C0 2.93984 0.269582 2.6726 0.602124 2.6726L14.0685 2.6726C15.3594 2.6726 16.6012 2.84267 17.794 3.18282C18.9868 3.50679 20.0979 3.97652 21.1273 4.59205C22.173 5.19135 23.1207 5.92026 23.9704 6.77875C24.8364 7.62103 25.5716 8.5605 26.1763 9.59716C26.7972 10.6338 27.2709 11.7434 27.5977 12.9258C27.9409 14.1083 28.1124 15.3393 28.1124 16.619C28.1124 18.5302 27.7448 20.3362 27.0096 22.0372C26.2744 23.7217 25.2695 25.1955 23.9949 26.4591C22.7203 27.7226 21.2252 28.7186 19.5097 29.4476C17.8103 30.1764 15.9967 30.5408 14.0685 30.5408H7.63637C7.30383 30.5408 7.03425 30.808 7.03425 31.1378V36.9171Z" fill="#3488FF"/>
<path d="M38.2841 36.9173C38.2841 37.2467 38.0144 37.514 37.6819 37.514H32.1461C31.8134 37.514 31.5439 37.2467 31.5439 36.9173L31.5439 12.0893C31.5439 11.7596 31.8134 11.4923 32.1461 11.4923H37.6819C38.0144 11.4923 38.2841 11.7596 38.2841 12.0893V36.9173Z" fill="#3488FF"/>
<path d="M50.0977 36.9173C50.0977 37.2467 49.828 37.514 49.4957 37.514H44.0087C43.6762 37.514 43.4065 37.2467 43.4065 36.9173V12.0893C43.4065 11.7596 43.6762 11.4923 44.0087 11.4923H44.7129C44.9082 11.4923 45.0913 11.5862 45.2044 11.7441L46.837 14.028C47.0459 14.3203 47.4651 14.3645 47.7462 14.1392C48.695 13.3789 49.7485 12.7801 50.9066 12.3427C52.2791 11.8082 53.7006 11.5409 55.1712 11.5409H60.4758C60.8085 11.5409 61.078 11.8082 61.078 12.1378V17.5528C61.078 17.8823 60.8085 18.1497 60.4758 18.1497H55.1712C54.4686 18.1497 53.8068 18.2792 53.1859 18.5383C52.5651 18.7975 52.0259 19.1539 51.5683 19.6074C51.1108 20.0609 50.7513 20.5955 50.4898 21.2111C50.2285 21.8264 50.0977 22.4825 50.0977 23.1791V36.9173Z" fill="#3488FF"/>
<path d="M89.117 36.9173C89.117 37.2467 88.8473 37.514 88.5148 37.514H87.8075C87.6139 37.514 87.4322 37.4218 87.3191 37.2663L85.2932 34.481C85.0837 34.1935 84.6694 34.1496 84.3956 34.3783C83.9087 34.7852 83.3989 35.1745 82.8671 35.546C82.1643 36.0319 81.4209 36.4613 80.6367 36.8338C79.8523 37.1901 79.0435 37.4736 78.2101 37.6841C77.3931 37.8946 76.5598 38 75.7101 38C73.8637 38 72.1236 37.6922 70.4895 37.0766C68.872 36.4613 67.4504 35.5704 66.2249 34.404C65.0158 33.2218 64.0601 31.7801 63.3573 30.0793C62.6547 28.3784 62.3034 26.4429 62.3034 24.2724C62.3034 22.2477 62.6547 20.393 63.3573 18.7085C64.0601 17.0077 65.0158 15.5498 66.2249 14.335C67.4504 13.1202 68.872 12.1807 70.4895 11.5166C72.1236 10.8363 73.8637 10.4961 75.7101 10.4961C76.5598 10.4961 77.4015 10.6014 78.2348 10.812C79.068 11.0226 79.8768 11.3141 80.6612 11.6867C81.4454 12.0593 82.1889 12.4966 82.8915 12.9987C83.4311 13.3757 83.9434 13.7755 84.4278 14.198C84.6886 14.4255 85.0896 14.4029 85.3122 14.1386L87.3187 11.7553C87.4332 11.6195 87.6025 11.5409 87.781 11.5409H88.5148C88.8473 11.5409 89.117 11.8081 89.117 12.1378V36.9173ZM82.3768 24.2724C82.3768 23.3654 82.1971 22.4906 81.8377 21.6483C81.4943 20.7898 81.0206 20.0367 80.416 19.3887C79.8115 18.7246 79.1008 18.1982 78.2838 17.8094C77.4831 17.4045 76.6253 17.202 75.7101 17.202C74.7952 17.202 73.9292 17.3559 73.1122 17.6636C72.3115 17.9714 71.6089 18.4249 71.0042 19.0243C70.4161 19.6236 69.9504 20.3686 69.6073 21.2596C69.2641 22.1342 69.0926 23.1385 69.0926 24.2724C69.0926 25.4063 69.2641 26.4186 69.6073 27.3094C69.9504 28.1841 70.4161 28.921 71.0042 29.5204C71.6089 30.1198 72.3115 30.5732 73.1122 30.881C73.9292 31.1888 74.7952 31.3427 75.7101 31.3427C76.6253 31.3427 77.4831 31.1483 78.2838 30.7596C79.1008 30.3546 79.8115 29.8282 80.416 29.1802C81.0206 28.5161 81.4943 27.763 81.8377 26.9208C82.1971 26.0621 82.3768 25.1794 82.3768 24.2724Z" fill="#3488FF"/>
<path d="M100.98 36.9173C100.98 37.2467 100.71 37.514 100.377 37.514H94.8416C94.5089 37.514 94.2394 37.2467 94.2394 36.9173V12.0893C94.2394 11.7596 94.5089 11.4923 94.8416 11.4923H100.377C100.71 11.4923 100.98 11.7596 100.98 12.0893V36.9173Z" fill="#3488FF"/>
<path fill-rule="evenodd" clip-rule="evenodd" d="M97.5442 8.83403C100.005 8.83403 102 6.85647 102 4.41702C102 1.97757 100.005 0 97.5442 0C95.0834 0 93.0885 1.97757 93.0885 4.41702C93.0885 6.85647 95.0834 8.83403 97.5442 8.83403ZM97.4841 7.52087C99.1801 7.52087 100.555 6.15795 100.555 4.47671C100.555 2.79545 99.1801 1.43254 97.4841 1.43254C95.7882 1.43254 94.4132 2.79545 94.4132 4.47671C94.4132 6.15795 95.7882 7.52087 97.4841 7.52087Z" fill="#3488FF"/>
</svg>
