<svg id="Layer_1" enable-background="new 0 0 512 512" height="512" viewBox="0 0 512 512" width="512" xmlns="http://www.w3.org/2000/svg"><g><g><g><path d="m127.853 120.007h-75.862c-12.247 0-22.174-9.928-22.174-22.174v-75.659c-.001-12.246 9.927-22.174 22.174-22.174h75.862c12.247 0 22.174 9.928 22.174 22.174v75.659c.001 12.246-9.927 22.174-22.174 22.174z" fill="#fe93d3"/><path d="m127.853 0h-40.594c12.247 0 22.174 9.928 22.174 22.174v75.659c0 12.247-9.928 22.174-22.174 22.174h40.595c12.247 0 22.174-9.928 22.174-22.174v-75.659c0-12.246-9.928-22.174-22.175-22.174z" fill="#fe73c5"/><ellipse cx="89.922" cy="60.004" fill="#fff" rx="23.891" ry="23.85"/><g><path d="" fill="#f2fbff"/><path d="m123.458 33.095c-4.954.142-8.689-5.417-6.648-9.946 2.3-5.864 10.99-5.865 13.285 0 2.061 4.518-1.694 10.083-6.637 9.946z" fill="#fff"/></g></g><g><g><g><ellipse cx="249.994" cy="174.434" fill="#08a9f1" rx="72.326" ry="72.203"/><path d="m255.997 143.671c1.191-.965 4.424-.954 6.212-.578 4.082.905 8.135-1.646 9.072-5.726.941-4.097-1.618-8.181-5.716-9.122-1.162-.267-11.576-2.435-19.043 3.511-3.003 2.392-6.582 6.96-6.582 15.14v10.061h-3.815c-4.204 0-7.611 3.408-7.611 7.611 0 4.204 3.408 7.611 7.611 7.611h3.815v41.44c0 4.204 3.408 7.611 7.611 7.611 4.204 0 7.611-3.408 7.611-7.611v-41.44h7.478c4.204 0 7.611-3.408 7.611-7.611 0-4.204-3.408-7.611-7.611-7.611h-7.478v-10.061c.002-.767.083-2.615.835-3.225z" fill="#fff"/></g></g><g><path d="m213.097 217.617c-46.975-5.553-94.442-5.553-141.417 0-3.529.417-6.196 3.392-6.196 6.94v86.68c0 3.548 2.666 6.523 6.196 6.94 46.975 5.553 94.442 5.553 141.417 0 3.529-.417 6.196-3.392 6.196-6.94v-86.68c0-3.548-2.666-6.523-6.196-6.94z" fill="#fe2aa8"/><path d="m160.784 267.842-18.395 10.603-18.396 10.602v-21.205-21.205l18.396 10.603z" fill="#fff"/></g></g><path d="m481.676 50.386-23.121 6.758c-4.218-5.811-11.071-9.591-18.809-9.591-12.82 0-23.212 10.375-23.212 23.172 0 4.598 1.342 8.884 3.655 12.487-9.001 1.616-38.667 3.69-60.798-32.644 0 0-10.565 59.765 32.229 77.859 0 0-12.94 13.091-37.106 9.573 0 0 8.755 23.279 45.167 23.031 33.243-.227 77.27-23.308 72.267-88.238z" fill="#99e6fc"/><g><path d="m481.676 50.386-23.121 6.758c-4.218-5.811-11.071-9.591-18.809-9.591-7.227 0-13.681 3.298-17.938 8.467 0 0 6.553 4.443 9.545 16.773 12.783 52.666-23.804 77.491-52.165 85.39 5.59 1.776 12.344 2.904 20.493 2.849 33.243-.227 77.27-23.308 72.267-88.238z" fill="#62dbfb"/></g><g><g><path d="m271.55 288.31h135.339v86.524l-35.963 35.902h-35.963l-32.862 32.806v-32.806h-30.551z" fill="#b289c9"/><path d="m366.294 288.31v86.524l-35.963 35.902h-28.23v32.806l32.862-32.806h35.963l35.963-35.902v-86.524z" fill="#a274bf"/><g fill="#fff"><path d="m371.313 313.391c-4.484 0-8.119 3.635-8.119 8.119v35.475c0 4.484 3.635 8.119 8.119 8.119s8.119-3.635 8.119-8.119v-35.475c0-4.484-3.635-8.119-8.119-8.119z"/><path d="m340.679 313.391c-4.484 0-8.119 3.635-8.119 8.119v35.475c0 4.484 3.635 8.119 8.119 8.119s8.119-3.635 8.119-8.119v-35.475c0-4.484-3.635-8.119-8.119-8.119z"/></g></g><g fill="#c8effe"><path d="m105.119 144.955c-4.484 0-8.119 3.635-8.119 8.119v19.304c0 4.484 3.635 8.119 8.119 8.119s8.119-3.635 8.119-8.119v-19.304c0-4.484-3.634-8.119-8.119-8.119z"/><path d="m74.725 144.955c-4.484 0-8.119 3.635-8.119 8.119v30.112c0 4.484 3.635 8.119 8.119 8.119s8.119-3.635 8.119-8.119v-30.112c0-4.484-3.635-8.119-8.119-8.119z"/><path d="m126.125 345.572c-4.484 0-8.119 3.635-8.119 8.119v19.304c0 4.484 3.635 8.119 8.119 8.119s8.119-3.635 8.119-8.119v-19.304c0-4.484-3.634-8.119-8.119-8.119z"/><path d="m158.652 345.572c-4.484 0-8.119 3.635-8.119 8.119v53.485c0 4.484 3.635 8.119 8.119 8.119s8.119-3.635 8.119-8.119v-53.485c0-4.484-3.635-8.119-8.119-8.119z"/><path d="m427.671 192.198c-4.484 0-8.119 3.635-8.119 8.119v19.304c0 4.484 3.635 8.119 8.119 8.119s8.119-3.635 8.119-8.119v-19.304c0-4.484-3.635-8.119-8.119-8.119z"/><path d="m395.145 192.198c-4.484 0-8.119 3.635-8.119 8.119v53.485c0 4.484 3.635 8.119 8.119 8.119s8.119-3.635 8.119-8.119v-53.485c0-4.484-3.635-8.119-8.119-8.119z"/><path d="m322.956 463.312c-4.484 0-8.119 3.635-8.119 8.119v19.304c0 4.484 3.635 8.119 8.119 8.119s8.119-3.635 8.119-8.119v-19.304c0-4.485-3.635-8.119-8.119-8.119z"/><path d="m355.483 442.277c-4.484 0-8.119 3.635-8.119 8.119v53.486c0 4.484 3.635 8.119 8.119 8.119s8.119-3.635 8.119-8.119v-53.486c0-4.485-3.635-8.119-8.119-8.119z"/></g></g></g><g fill="#fedf30"><path d="m46.278 355.853 15.017 27.476 27.456 15.027-27.456 15.027-15.017 27.476-15.016-27.476-27.456-15.027 27.456-15.027z"/><path d="m209.876 447.415 10.065 18.415 18.402 10.072-18.402 10.071-10.065 18.415-10.064-18.415-18.402-10.071 18.402-10.072z"/><path d="m479.728 258.601 10.064 18.416 18.402 10.071-18.402 10.072-10.064 18.415-10.064-18.415-18.402-10.072 18.402-10.071z"/><path d="m276.092 0 12.097 22.135 22.119 12.106-22.119 12.106-12.097 22.135-12.098-22.135-22.119-12.106 22.119-12.106z"/></g></g></svg>