<svg width="100" height="100" viewBox="0 0 100 100" fill="none" xmlns="http://www.w3.org/2000/svg">
<g clip-path="url(#clip0_3514_15148)">
<path d="M50 0C22.3867 0 0 22.3867 0 50C0 77.6133 22.3867 100 50 100C77.6133 100 100 77.6133 100 50C100 22.3867 77.6133 0 50 0Z" fill="black"/>
<path d="M55.4702 45.4746L76.8746 20.5938H71.8025L53.217 42.1975L38.3729 20.5938H21.252L43.6991 53.2624L21.252 79.3538H26.3244L45.9511 56.5396L61.6276 79.3538H78.7485L55.4689 45.4746H55.4702ZM28.152 24.4123H35.943L71.8048 75.709H64.0138L28.152 24.4123Z" fill="white"/>
</g>
<defs>
<clipPath id="clip0_3514_15148">
<rect width="100" height="100" fill="white"/>
</clipPath>
</defs>
</svg>
