<svg width="100" height="100" viewBox="0 0 100 100" fill="none" xmlns="http://www.w3.org/2000/svg">
<g clip-path="url(#clip0_3514_15158)">
<path d="M50 100C77.6142 100 100 77.6142 100 50C100 22.3858 77.6142 0 50 0C22.3858 0 0 22.3858 0 50C0 77.6142 22.3858 100 50 100Z" fill="#F20000"/>
<path d="M73.8282 37.9723C72.8282 34.867 69.519 33.0315 66.4466 32.6038C55.495 31.4393 44.4508 31.4393 33.4992 32.6038C30.4532 33.0315 27.144 34.8933 26.144 37.9723C24.5848 45.9162 24.5848 54.0875 26.144 62.0315C27.1703 65.1301 30.4795 66.9723 33.5519 67.3999C44.5038 68.5578 55.5473 68.5578 66.4992 67.3999C69.5453 66.9723 72.8545 65.1038 73.8545 62.0315C75.405 54.0858 75.396 45.9145 73.8282 37.9723ZM44.019 59.5775V40.4196L59.6177 49.9986C54.3611 53.2288 49.2558 56.3736 44.019 59.5775Z" fill="white"/>
</g>
<defs>
<clipPath id="clip0_3514_15158">
<rect width="100" height="100" fill="white"/>
</clipPath>
</defs>
</svg>
